HIERARCHY
ROOT SpineBase
{
  OFFSET 0.000000 0.000000 0.000000
  CHANNELS 6 Xposition Yposition Zposition Zrotation Xrotation Yrotation
  JOINT SpineMid
  {
    OFFSET 0.000000 32.789869 0.000000
    CHANNELS 3 Zrotation Xrotation Yrotation
    JOINT SpineShoulder
    {
      OFFSET -0.581006 24.166402 -0.890200
      CHANNELS 3 Zrotation Xrotation Yrotation
      JOINT Neck
      {
        OFFSET -0.318346 7.922102 -0.676088
        CHANNELS 3 Zrotation Xrotation Yrotation
        JOINT Head
        {
          OFFSET -2.938830 12.691705 5.849105
          CHANNELS 3 Zrotation Xrotation Yrotation
          End Site
          {
            OFFSET 0 0 0
          }
        }
      }
      JOINT ShoulderLeft
      {
        OFFSET -8.943530 -8.433578 -13.609413
        CHANNELS 3 Zrotation Xrotation Yrotation
        JOINT ElbowLeft
        {
          OFFSET 1.009431 -19.166024 21.607923
          CHANNELS 3 Zrotation Xrotation Yrotation
          JOINT WristLeft
          {
            OFFSET -1.921909 -28.007053 10.162501
            CHANNELS 3 Zrotation Xrotation Yrotation
            JOINT HandLeft
            {
              OFFSET 2.841241 -12.956978 -2.882054
              CHANNELS 3 Zrotation Xrotation Yrotation
              JOINT HandTipLeft
              {
                OFFSET -0.539097 -1.084865 -1.098330
                CHANNELS 3 Zrotation Xrotation Yrotation
                End Site
                {
                  OFFSET 0 0 0
                }
              }
              JOINT ThumbLeft
              {
                OFFSET -0.844468 0.873515 -1.152223
                CHANNELS 3 Zrotation Xrotation Yrotation
                End Site
                {
                  OFFSET 0 0 0
                }
              }
            }
          }
        }
      }
      JOINT ShoulderRight
      {
        OFFSET 2.277262 -5.255657 -12.339038
        CHANNELS 3 Zrotation Xrotation Yrotation
        JOINT ElbowRight
        {
          OFFSET 1.767731 -21.132251 -9.504399
          CHANNELS 3 Zrotation Xrotation Yrotation
          JOINT WristRight
          {
            OFFSET -8.185402 -24.770634 -4.585089
            CHANNELS 3 Zrotation Xrotation Yrotation
            JOINT HandRight
            {
              OFFSET -3.603583 -8.996461 -1.860383
              CHANNELS 3 Zrotation Xrotation Yrotation
              JOINT HandTipRight
              {
                OFFSET -2.710848 -5.609377 -2.035267
                CHANNELS 3 Zrotation Xrotation Yrotation
                End Site
                {
                  OFFSET 0 0 0
                }
              }
              JOINT ThumbRight
              {
                OFFSET 2.521762 -3.419285 2.491896
                CHANNELS 3 Zrotation Xrotation Yrotation
                End Site
                {
                  OFFSET 0 0 0
                }
              }
            }
          }
        }
      }
    }
  }
  JOINT HipLeft
  {
    OFFSET -8.337699 -1.197424 2.024892
    CHANNELS 3 Zrotation Xrotation Yrotation
    JOINT KneeLeft
    {
      OFFSET 8.177387 -33.122518 7.089820
      CHANNELS 3 Zrotation Xrotation Yrotation
      JOINT AnkleLeft
      {
        OFFSET 16.538449 -42.117146 -1.165744
        CHANNELS 3 Zrotation Xrotation Yrotation
        JOINT FootLeft
        {
          OFFSET -0.687998 -5.869087 -7.636039
          CHANNELS 3 Zrotation Xrotation Yrotation
          End Site
          {
            OFFSET 0 0 0
          }
        }
      }
    }
  }
  JOINT HipRight
  {
    OFFSET 6.205307 2.364044 -9.314988
    CHANNELS 3 Zrotation Xrotation Yrotation
    JOINT KneeRight
    {
      OFFSET 2.944148 -37.174947 -6.193994
      CHANNELS 3 Zrotation Xrotation Yrotation
      JOINT AnkleRight
      {
        OFFSET 10.865659 -36.873030 2.596752
        CHANNELS 3 Zrotation Xrotation Yrotation
        JOINT FootRight
        {
          OFFSET 0.384340 -3.177212 -13.766251
          CHANNELS 3 Zrotation Xrotation Yrotation
          End Site
          {
            OFFSET 0 0 0
          }
        }
      }
    }
  }
}
MOTION
Frames: 9
Frame Time: 0.033333
93.561539 84.850538 331.806755 1.576219 0.273345 38.329684 -0.477160 0.636209 -38.294229 -0.054713 0.280000 0.051378 -2.095901 0.570759 0.822027 0.000000 0.000000 0.000000 -0.753673 -0.755201 -0.099606 -0.000000 0.000000 0.000000 -16.787365 -32.860033 -9.550372 2.965978 31.981803 16.125648 0.000000 0.000000 0.000000 0.000000 0.000000 0.000000 4.163560 -1.087698 -2.255225 -3.717160 5.029081 0.333077 -7.709437 3.608719 -0.392195 8.453767 -18.368854 7.576996 0.000000 0.000000 0.000000 0.000000 0.000000 0.000000 -0.619523 -2.341566 -38.250629 -2.453491 2.788144 0.303491 4.886224 23.515734 -8.323368 0.000000 0.000000 0.000000 -1.406042 0.763102 -38.324080 1.101482 0.450411 0.205445 -0.763687 -0.260695 -1.646327 0.000000 0.000000 0.000000
93.550815 84.863661 331.741902 1.603479 0.273876 38.570223 -0.479122 0.647076 -38.534137 -0.087263 0.279037 0.049415 -1.973779 0.659552 0.795717 0.000000 0.000000 0.000000 -0.739214 -0.758828 -0.098446 -0.000000 0.000000 0.000000 -20.254960 -33.025727 -9.992108 6.831188 32.507406 14.254466 0.000000 0.000000 0.000000 0.000000 0.000000 0.000000 4.222839 -1.400196 -2.288323 -3.282520 4.958757 0.406788 -4.066238 2.376915 -0.598158 7.013019 -18.117385 7.814413 0.000000 0.000000 0.000000 0.000000 0.000000 0.000000 -0.609072 -2.161169 -38.468965 -2.472519 1.799058 -0.046706 4.090026 24.420999 -7.127339 0.000000 0.000000 0.000000 -1.424476 0.785577 -38.564289 1.099030 0.384052 0.186406 -1.100298 -0.380404 -0.193742 0.000000 0.000000 0.000000
93.523507 84.869852 331.634684 1.624627 0.317552 38.867175 -0.482934 0.666779 -38.830722 -0.120293 0.292766 0.048019 -1.989690 0.602663 0.816311 0.000000 0.000000 0.000000 -0.711024 -0.825159 -0.098924 -0.000000 0.000000 0.000000 -21.517273 -34.173387 -10.726042 7.792870 33.801254 14.044092 0.000000 0.000000 0.000000 0.000000 0.000000 0.000000 4.446286 -1.939547 -2.389304 -2.675521 5.116064 0.461073 -0.651024 0.959679 -0.644928 5.049436 -16.702690 7.444222 0.000000 0.000000 0.000000 0.000000 0.000000 0.000000 -0.637588 -2.025072 -38.749885 -2.396390 1.663412 -0.068091 3.050592 24.455486 -5.892586 0.000000 0.000000 0.000000 -1.644705 -0.061234 -38.984881 0.707039 1.075428 0.277577 -1.092568 -0.308573 -0.171266 0.000000 0.000000 0.000000
93.482402 84.869411 331.492202 1.638286 0.405197 39.137883 -0.500868 0.673275 -39.101476 -0.148929 0.305785 0.046869 -2.108005 0.346293 0.843043 0.000000 0.000000 0.000000 -0.677151 -0.915801 -0.099959 -0.000000 0.000000 0.000000 -18.610617 -33.826189 -10.206361 4.635548 33.161520 15.543511 0.000000 0.000000 0.000000 0.000000 0.000000 0.000000 4.735909 -2.546852 -2.514187 -2.006633 5.295443 0.517403 2.026737 -0.371913 -0.522136 2.870587 -15.382096 7.148198 0.000000 0.000000 0.000000 0.000000 0.000000 0.000000 -0.708763 -1.973842 -39.014810 -2.331757 1.577470 -0.078220 1.960885 24.470363 -4.598368 0.000000 0.000000 0.000000 -1.866752 -0.270403 -39.270905 0.739388 1.222132 0.267385 -1.535969 -0.157596 1.727033 0.000000 0.000000 0.000000
93.433258 84.865601 331.352664 1.633462 0.507984 39.433625 -0.511199 0.691190 -39.397764 -0.169094 0.313518 0.045763 -2.285693 -0.062192 0.869074 0.000000 0.000000 0.000000 -0.631914 -1.029430 -0.100920 -0.006622 -0.819045 0.053616 -18.465336 -33.051238 -9.964359 4.626907 33.186486 15.549744 0.000000 0.000000 0.000000 0.000000 0.000000 0.000000 5.095456 -3.196049 -2.659002 -1.233213 5.487180 0.555790 3.578235 -1.353414 -0.315417 1.763293 -15.591819 7.644848 0.000000 0.000000 0.000000 0.000000 0.000000 0.000000 -0.764575 -1.952718 -39.301696 -2.280483 1.490526 -0.091226 0.950935 24.468468 -3.399212 0.000000 0.000000 0.000000 -2.082388 -0.532576 -39.589349 0.771323 1.408119 0.268520 -1.837152 -0.136082 2.891937 0.000000 0.000000 0.000000
93.368923 84.863559 331.230606 1.619156 0.590275 39.599131 -0.521287 0.698550 -39.563976 -0.189639 0.311341 0.043757 -2.515478 -0.400431 0.929191 0.000000 0.000000 0.000000 -0.584082 -1.106439 -0.099888 -0.003994 -0.835977 0.055742 -20.569024 -32.574079 -9.932422 1.246684 37.558553 19.180753 0.000000 0.000000 0.000000 0.000000 0.000000 0.000000 5.443860 -3.911306 -2.800753 -0.426298 5.794245 0.572385 4.311102 -2.148926 -0.030971 1.825343 -16.273324 8.258194 0.000000 0.000000 0.000000 0.000000 0.000000 0.000000 -1.042035 -2.075359 -39.547258 -2.138318 1.674492 -0.013173 0.202671 26.837138 -2.683694 0.000000 0.000000 0.000000 -2.217719 -0.738356 -39.774191 0.780700 1.538148 0.273039 -2.146529 -0.160410 4.121968 0.000000 0.000000 0.000000
93.301020 84.867532 331.135454 1.601027 0.646616 39.663629 -0.523975 0.690528 -39.628854 -0.205844 0.319355 0.042570 -2.785447 -0.651937 1.014628 0.000000 0.000000 0.000000 -0.552625 -1.161985 -0.099395 -0.001511 -0.852391 0.057779 -19.869517 -32.556710 -9.862243 -10.956501 42.252877 30.285047 0.000000 0.000000 0.000000 0.000000 0.000000 0.000000 5.721702 -4.545945 -2.917739 0.445688 6.088020 0.528186 4.429492 -2.705385 0.250413 1.576285 -15.209625 7.676160 0.000000 0.000000 0.000000 0.000000 0.000000 0.000000 -0.986207 -1.923934 -39.576074 -2.068170 1.466673 -0.054537 -0.542827 26.226296 -1.761450 0.000000 0.000000 0.000000 -2.285091 -0.873946 -39.851657 0.815695 1.611739 0.279137 -2.426582 -0.200094 5.106920 0.000000 0.000000 0.000000
93.238497 84.866864 331.081344 1.579870 0.661516 39.534290 -0.511543 0.686019 -39.499576 -0.210639 0.330489 0.042462 -3.035187 -0.801651 1.101428 0.000000 0.000000 0.000000 -0.539619 -1.194375 -0.099605 -0.000000 0.000000 0.000000 -15.533892 -34.410437 -10.120048 -4.884490 37.302358 22.409357 0.000000 0.000000 0.000000 0.000000 0.000000 0.000000 5.992888 -4.917166 -3.030979 1.161639 6.197965 0.489525 3.776651 -2.994032 0.520167 2.274995 -15.158010 7.546068 0.000000 0.000000 0.000000 0.000000 0.000000 0.000000 -0.667166 -1.593825 -39.328093 -2.076561 0.999526 -0.180792 -1.305645 23.114476 -0.616319 0.000000 0.000000 0.000000 -2.271172 -0.867122 -39.717146 0.904476 1.567660 0.273115 -2.587418 -0.211799 5.507463 0.000000 0.000000 0.000000
93.175344 84.867707 331.075696 1.580173 0.647037 39.386053 -0.517429 0.706725 -39.351825 -0.197139 0.338810 0.043204 -3.171373 -0.848827 1.153617 0.000000 0.000000 0.000000 -0.536276 -1.202652 -0.099655 -0.000000 0.000000 0.000000 -12.062410 -35.349670 -10.098150 7.674136 26.483252 9.748536 0.000000 0.000000 0.000000 0.000000 0.000000 0.000000 6.186856 -5.057015 -3.110928 1.723114 6.197731 0.433846 3.401840 -3.648609 0.942022 2.135918 -13.060050 6.138658 0.000000 0.000000 0.000000 0.000000 0.000000 0.000000 -0.151869 -1.062410 -38.991912 -2.135054 0.284947 -0.383365 -2.120059 17.313703 0.863374 0.000000 0.000000 0.000000 -2.203278 -0.788682 -39.560255 0.976721 1.479921 0.271487 -2.641865 -0.210085 5.435886 0.000000 0.000000 0.000000
